<?xml version="1.0" standalone="no"?>
<!DOCTYPE svg PUBLIC "-//W3C//DTD SVG 1.1//EN"
  "http://www.w3.org/Graphics/SVG/1.1/DTD/svg11.dtd">
<svg width="1771.65px" height="1771.65px" version="1.1"
    xmlns="http://www.w3.org/2000/svg"
    xmlns:xlink="http://www.w3.org/1999/xlink">
<desc>Veusz output document</desc>
<defs>
<clipPath id="c0">
<path d="m0,0l1771.65,0l0,1771.65l-1771.65,0l0,-1771.65"/>
</clipPath>
</defs>
<g stroke-linejoin="bevel" stroke-linecap="square" stroke="#000000" fill-rule="evenodd">
<g clip-path="url(#c0)">
<g fill="#ffffff" stroke-width="2.08">
<path d="m200.78,23.62l1547.24,0l0,1547.24l-1547.24,0l0,-1547.24"/>
</g>
<g fill="none" stroke-linecap="butt" stroke-width="2.08">
<path d="M200.78,1570.86l0,-1547.24"/>
<path d="M200.78,1570.86l12.5,0M200.78,1493.5l12.5,0M200.78,1416.14l12.5,0M200.78,1338.77l12.5,0M200.78,1261.41l12.5,0M200.78,1184.05l12.5,0M200.78,1106.69l12.5,0M200.78,1029.33l12.5,0M200.78,951.96l12.5,0M200.78,874.6l12.5,0M200.78,797.24l12.5,0M200.78,719.88l12.5,0M200.78,642.51l12.5,0M200.78,565.15l12.5,0M200.78,487.79l12.5,0M200.78,410.43l12.5,0M200.78,333.07l12.5,0M200.78,255.7l12.5,0M200.78,178.34l12.5,0M200.78,100.98l12.5,0M200.78,23.62l12.5,0"/>
<path d="M200.78,1570.86l25,0M200.78,1261.41l25,0M200.78,951.96l25,0M200.78,642.51l25,0M200.78,333.07l25,0M200.78,23.62l25,0"/>
</g>
<g fill="none" stroke-width="0.1">
<path d="m161.64,1571.78c0,-4.09,0.61,-7.61,1.85,-10.57c1.23,-2.95,2.87,-5.15,4.92,-6.6c1.58,-1.14,3.22,-1.72,4.92,-1.72c2.75,0,5.22,1.4,7.41,4.2c2.73,3.47,4.1,8.18,4.1,14.13c0,4.16,-0.59,7.7,-1.79,10.61c-1.19,2.91,-2.73,5.02,-4.59,6.33c-1.86,1.31,-3.65,1.97,-5.38,1.97c-3.42,0,-6.27,-2.02,-8.54,-6.06c-1.92,-3.4,-2.88,-7.5,-2.88,-12.3m5.18,0.66c0,4.94,0.6,8.97,1.82,12.09c1,2.62,2.5,3.94,4.49,3.94c0.95,0,1.94,-0.42,2.96,-1.28c1.02,-0.85,1.79,-2.28,2.32,-4.3c0.81,-3.03,1.21,-7.31,1.21,-12.83c0,-4.09,-0.42,-7.5,-1.27,-10.24c-0.63,-2.02,-1.45,-3.46,-2.46,-4.31c-0.72,-0.58,-1.59,-0.87,-2.62,-0.87c-1.19,0,-2.26,0.53,-3.2,1.61c-1.27,1.46,-2.13,3.76,-2.59,6.9c-0.45,3.14,-0.68,6.23,-0.68,9.28" fill="#000000" stroke="none" fill-opacity="1"/>
<path d="m120.94,1262.33c0,-4.09,0.61,-7.61,1.85,-10.57c1.23,-2.95,2.87,-5.15,4.92,-6.6c1.58,-1.14,3.22,-1.72,4.92,-1.72c2.75,0,5.22,1.4,7.41,4.2c2.73,3.47,4.1,8.18,4.1,14.13c0,4.16,-0.59,7.7,-1.79,10.61c-1.19,2.91,-2.73,5.02,-4.59,6.33c-1.86,1.31,-3.65,1.97,-5.38,1.97c-3.42,0,-6.27,-2.02,-8.54,-6.06c-1.92,-3.4,-2.88,-7.5,-2.88,-12.3m5.18,0.66c0,4.94,0.6,8.97,1.82,12.09c1,2.62,2.5,3.94,4.49,3.94c0.95,0,1.94,-0.42,2.96,-1.28c1.02,-0.85,1.79,-2.28,2.32,-4.3c0.81,-3.03,1.21,-7.31,1.21,-12.83c0,-4.09,-0.42,-7.5,-1.27,-10.24c-0.63,-2.02,-1.45,-3.46,-2.46,-4.31c-0.72,-0.58,-1.59,-0.87,-2.62,-0.87c-1.19,0,-2.26,0.53,-3.2,1.61c-1.27,1.46,-2.13,3.76,-2.59,6.9c-0.45,3.14,-0.68,6.23,-0.68,9.28m26.72,11.93c0.82,0,1.52,0.28,2.09,0.86c0.56,0.57,0.84,1.26,0.84,2.07c0,0.81,-0.28,1.5,-0.86,2.07c-0.57,0.57,-1.26,0.86,-2.07,0.86c-0.81,0,-1.5,-0.28,-2.07,-0.86c-0.57,-0.57,-0.86,-1.26,-0.86,-2.07c0,-0.82,0.28,-1.52,0.86,-2.09c0.57,-0.56,1.26,-0.84,2.07,-0.84m31.67,-1.77l-2.51,6.9l-21.17,0l0,-0.97c6.22,-5.68,10.61,-10.32,13.15,-13.92c2.54,-3.59,3.81,-6.88,3.81,-9.87c0,-2.27,-0.69,-4.14,-2.09,-5.61c-1.39,-1.46,-3.06,-2.19,-5,-2.19c-1.76,0,-3.34,0.51,-4.75,1.54c-1.4,1.03,-2.43,2.54,-3.1,4.53l-0.97,0c0.44,-3.26,1.57,-5.76,3.4,-7.51c1.82,-1.74,4.1,-2.62,6.84,-2.62c2.91,0,5.34,0.93,7.29,2.8c1.94,1.87,2.92,4.07,2.92,6.61c0,1.81,-0.42,3.63,-1.27,5.45c-1.3,2.85,-3.42,5.88,-6.35,9.07c-4.39,4.79,-7.13,7.69,-8.23,8.68l9.36,0c1.9,0,3.24,-0.07,4,-0.21c0.76,-0.14,1.46,-0.42,2.07,-0.86c0.61,-0.43,1.15,-1.04,1.61,-1.83l0.97,0" fill="#000000" stroke="none" fill-opacity="1"/>
<path d="m120.94,952.88c0,-4.09,0.61,-7.61,1.85,-10.57c1.23,-2.95,2.87,-5.15,4.92,-6.6c1.58,-1.14,3.22,-1.72,4.92,-1.72c2.75,0,5.22,1.4,7.41,4.2c2.73,3.47,4.1,8.18,4.1,14.13c0,4.16,-0.59,7.7,-1.79,10.61c-1.19,2.91,-2.73,5.02,-4.59,6.33c-1.86,1.31,-3.65,1.97,-5.38,1.97c-3.42,0,-6.27,-2.02,-8.54,-6.06c-1.92,-3.4,-2.88,-7.5,-2.88,-12.3m5.18,0.66c0,4.94,0.6,8.97,1.82,12.09c1,2.62,2.5,3.94,4.49,3.94c0.95,0,1.94,-0.42,2.96,-1.28c1.02,-0.85,1.79,-2.28,2.32,-4.3c0.81,-3.03,1.21,-7.31,1.21,-12.83c0,-4.09,-0.42,-7.5,-1.27,-10.24c-0.63,-2.02,-1.45,-3.46,-2.46,-4.31c-0.72,-0.58,-1.59,-0.87,-2.62,-0.87c-1.19,0,-2.26,0.53,-3.2,1.61c-1.27,1.46,-2.13,3.76,-2.59,6.9c-0.45,3.14,-0.68,6.23,-0.68,9.28m26.72,11.93c0.82,0,1.52,0.28,2.09,0.86c0.56,0.57,0.84,1.26,0.84,2.07c0,0.81,-0.28,1.5,-0.86,2.07c-0.57,0.57,-1.26,0.86,-2.07,0.86c-0.81,0,-1.5,-0.28,-2.07,-0.86c-0.57,-0.57,-0.86,-1.26,-0.86,-2.07c0,-0.82,0.28,-1.52,0.86,-2.09c0.57,-0.56,1.26,-0.84,2.07,-0.84m32.04,-8.09l0,3.75l-4.81,0l0,9.47l-4.36,0l0,-9.47l-15.19,0l0,-3.38l16.64,-23.76l2.91,0l0,23.39l4.81,0m-9.18,0l0,-17.81l-12.59,17.81l12.59,0" fill="#000000" stroke="none" fill-opacity="1"/>
<path d="m120.94,643.43c0,-4.09,0.61,-7.61,1.85,-10.57c1.23,-2.95,2.87,-5.15,4.92,-6.6c1.58,-1.14,3.22,-1.72,4.92,-1.72c2.75,0,5.22,1.4,7.41,4.2c2.73,3.47,4.1,8.18,4.1,14.13c0,4.16,-0.59,7.7,-1.79,10.61c-1.19,2.91,-2.73,5.02,-4.59,6.33c-1.86,1.31,-3.65,1.97,-5.38,1.97c-3.42,0,-6.27,-2.02,-8.54,-6.06c-1.92,-3.4,-2.88,-7.5,-2.88,-12.3m5.18,0.66c0,4.94,0.6,8.97,1.82,12.09c1,2.62,2.5,3.94,4.49,3.94c0.95,0,1.94,-0.42,2.96,-1.28c1.02,-0.85,1.79,-2.28,2.32,-4.3c0.81,-3.03,1.21,-7.31,1.21,-12.83c0,-4.09,-0.42,-7.5,-1.27,-10.24c-0.63,-2.02,-1.45,-3.46,-2.46,-4.31c-0.72,-0.58,-1.59,-0.87,-2.62,-0.87c-1.19,0,-2.26,0.53,-3.2,1.61c-1.27,1.46,-2.13,3.76,-2.59,6.9c-0.45,3.14,-0.68,6.23,-0.68,9.28m26.72,11.93c0.82,0,1.52,0.28,2.09,0.86c0.56,0.57,0.84,1.26,0.84,2.07c0,0.81,-0.28,1.5,-0.86,2.07c-0.57,0.57,-1.26,0.86,-2.07,0.86c-0.81,0,-1.5,-0.28,-2.07,-0.86c-0.57,-0.57,-0.86,-1.26,-0.86,-2.07c0,-0.82,0.28,-1.52,0.86,-2.09c0.57,-0.56,1.26,-0.84,2.07,-0.84m31.11,-31.49l0,0.97c-2.32,0.22,-4.23,0.69,-5.7,1.38c-1.47,0.69,-2.92,1.75,-4.36,3.18c-1.43,1.42,-2.62,3.02,-3.57,4.77c-0.94,1.75,-1.73,3.84,-2.36,6.25c2.54,-1.74,5.09,-2.62,7.64,-2.62c2.45,0,4.57,0.98,6.37,2.96c1.79,1.97,2.69,4.51,2.69,7.62c0,2.99,-0.9,5.73,-2.72,8.2c-2.18,2.99,-5.08,4.49,-8.68,4.49c-2.45,0,-4.53,-0.81,-6.24,-2.43c-3.35,-3.15,-5.02,-7.25,-5.02,-12.27c0,-3.21,0.64,-6.26,1.93,-9.15c1.28,-2.89,3.12,-5.46,5.51,-7.7c2.39,-2.24,4.67,-3.74,6.86,-4.52c2.18,-0.77,4.22,-1.16,6.11,-1.16l1.53,0m-16.46,18.52c-0.31,2.38,-0.47,4.3,-0.47,5.76c0,1.69,0.31,3.53,0.93,5.51c0.62,1.98,1.55,3.55,2.79,4.72c0.89,0.82,1.99,1.24,3.28,1.24c1.53,0,2.9,-0.72,4.11,-2.17c1.2,-1.44,1.81,-3.51,1.81,-6.19c0,-3.01,-0.59,-5.62,-1.79,-7.83c-1.19,-2.2,-2.9,-3.3,-5.1,-3.3c-0.67,0,-1.38,0.14,-2.15,0.42c-0.76,0.28,-1.9,0.89,-3.4,1.82" fill="#000000" stroke="none" fill-opacity="1"/>
<path d="m120.94,333.98c0,-4.09,0.61,-7.61,1.85,-10.57c1.23,-2.95,2.87,-5.15,4.92,-6.6c1.58,-1.14,3.22,-1.72,4.92,-1.72c2.75,0,5.22,1.4,7.41,4.2c2.73,3.47,4.1,8.18,4.1,14.13c0,4.16,-0.59,7.7,-1.79,10.61c-1.19,2.91,-2.73,5.02,-4.59,6.33c-1.86,1.31,-3.65,1.97,-5.38,1.97c-3.42,0,-6.27,-2.02,-8.54,-6.06c-1.92,-3.4,-2.88,-7.5,-2.88,-12.3m5.18,0.66c0,4.94,0.6,8.97,1.82,12.09c1,2.62,2.5,3.94,4.49,3.94c0.95,0,1.94,-0.42,2.96,-1.28c1.02,-0.85,1.79,-2.28,2.32,-4.3c0.81,-3.03,1.21,-7.31,1.21,-12.83c0,-4.09,-0.42,-7.5,-1.27,-10.24c-0.63,-2.02,-1.45,-3.46,-2.46,-4.31c-0.72,-0.58,-1.59,-0.87,-2.62,-0.87c-1.19,0,-2.26,0.53,-3.2,1.61c-1.27,1.46,-2.13,3.76,-2.59,6.9c-0.45,3.14,-0.68,6.23,-0.68,9.28m26.72,11.93c0.82,0,1.52,0.28,2.09,0.86c0.56,0.57,0.84,1.26,0.84,2.07c0,0.81,-0.28,1.5,-0.86,2.07c-0.57,0.57,-1.26,0.86,-2.07,0.86c-0.81,0,-1.5,-0.28,-2.07,-0.86c-0.57,-0.57,-0.86,-1.26,-0.86,-2.07c0,-0.82,0.28,-1.52,0.86,-2.09c0.57,-0.56,1.26,-0.84,2.07,-0.84m17.22,-12.94c-2.84,-2.32,-4.67,-4.19,-5.49,-5.61c-0.82,-1.41,-1.23,-2.87,-1.23,-4.39c0,-2.32,0.89,-4.33,2.69,-6.02c1.79,-1.68,4.19,-2.52,7.17,-2.52c2.89,0,5.22,0.78,6.98,2.35c1.76,1.57,2.64,3.36,2.64,5.37c0,1.34,-0.47,2.7,-1.42,4.1c-0.95,1.39,-2.93,3.03,-5.95,4.92c3.1,2.39,5.16,4.28,6.16,5.66c1.34,1.79,2.01,3.69,2.01,5.68c0,2.52,-0.96,4.67,-2.88,6.47c-1.92,1.79,-4.44,2.68,-7.56,2.68c-3.4,0,-6.06,-1.06,-7.96,-3.2c-1.51,-1.71,-2.27,-3.58,-2.27,-5.61c0,-1.58,0.53,-3.16,1.6,-4.72c1.06,-1.56,2.9,-3.28,5.51,-5.17m4.15,-2.83c2.11,-1.9,3.45,-3.4,4.02,-4.51c0.56,-1.1,0.84,-2.35,0.84,-3.74c0,-1.85,-0.52,-3.3,-1.56,-4.35c-1.04,-1.04,-2.46,-1.57,-4.26,-1.57c-1.79,0,-3.26,0.52,-4.39,1.56c-1.12,1.04,-1.69,2.25,-1.69,3.65c0,0.91,0.23,1.83,0.7,2.75c0.46,0.91,1.13,1.79,1.99,2.62l4.34,3.59m-2.91,3.83c-1.46,1.23,-2.54,2.58,-3.25,4.03c-0.7,1.45,-1.05,3.03,-1.05,4.72c0,2.27,0.62,4.09,1.86,5.46c1.24,1.36,2.82,2.05,4.75,2.05c1.9,0,3.43,-0.53,4.57,-1.61c1.14,-1.07,1.72,-2.38,1.72,-3.91c0,-1.27,-0.33,-2.4,-1,-3.41c-1.25,-1.87,-3.78,-4.31,-7.59,-7.33" fill="#000000" stroke="none" fill-opacity="1"/>
<path d="m166.03,16.93l8.73,-4.26l0.87,0l0,30.3c0,2.01,0.08,3.26,0.25,3.75c0.16,0.49,0.51,0.87,1.04,1.13c0.52,0.26,1.6,0.41,3.22,0.44l0,0.97l-13.49,0l0,-0.97c1.69,-0.03,2.78,-0.18,3.28,-0.43c0.49,-0.25,0.83,-0.59,1.03,-1.03c0.19,-0.43,0.29,-1.72,0.29,-3.87l0,-19.37c0,-2.61,-0.08,-4.28,-0.26,-5.02c-0.12,-0.56,-0.34,-0.97,-0.67,-1.24c-0.32,-0.26,-0.71,-0.39,-1.17,-0.39c-0.65,0,-1.56,0.27,-2.72,0.82l-0.39,-0.82" fill="#000000" stroke="none" fill-opacity="1"/>
</g>
<g fill="none" stroke-linecap="butt" stroke-width="2.08">
<path d="M200.78,1570.86l1547.24,0"/>
<path d="M200.78,1570.86l0,-12.5M278.14,1570.86l0,-12.5M355.51,1570.86l0,-12.5M432.87,1570.86l0,-12.5M510.23,1570.86l0,-12.5M587.59,1570.86l0,-12.5M664.96,1570.86l0,-12.5M742.32,1570.86l0,-12.5M819.68,1570.86l0,-12.5M897.04,1570.86l0,-12.5M974.4,1570.86l0,-12.5M1051.77,1570.86l0,-12.5M1129.13,1570.86l0,-12.5M1206.49,1570.86l0,-12.5M1283.85,1570.86l0,-12.5M1361.22,1570.86l0,-12.5M1438.58,1570.86l0,-12.5M1515.94,1570.86l0,-12.5M1593.3,1570.86l0,-12.5M1670.66,1570.86l0,-12.5M1748.03,1570.86l0,-12.5"/>
<path d="M200.78,1570.86l0,-25M510.23,1570.86l0,-25M819.68,1570.86l0,-25M1129.13,1570.86l0,-25M1438.58,1570.86l0,-25M1748.03,1570.86l0,-25"/>
</g>
<g fill="none" stroke-width="0.1">
<path d="m189.19,1615.43c0,-4.09,0.61,-7.61,1.85,-10.57c1.23,-2.95,2.87,-5.15,4.92,-6.6c1.58,-1.14,3.22,-1.72,4.92,-1.72c2.75,0,5.22,1.4,7.41,4.2c2.73,3.47,4.1,8.18,4.1,14.13c0,4.16,-0.59,7.7,-1.79,10.61c-1.19,2.91,-2.73,5.02,-4.59,6.33c-1.86,1.31,-3.65,1.97,-5.38,1.97c-3.42,0,-6.27,-2.02,-8.54,-6.06c-1.92,-3.4,-2.88,-7.5,-2.88,-12.3m5.18,0.66c0,4.94,0.6,8.97,1.82,12.09c1,2.62,2.5,3.94,4.49,3.94c0.95,0,1.94,-0.42,2.96,-1.28c1.02,-0.85,1.79,-2.28,2.32,-4.3c0.81,-3.03,1.21,-7.31,1.21,-12.83c0,-4.09,-0.42,-7.5,-1.27,-10.24c-0.63,-2.02,-1.45,-3.46,-2.46,-4.31c-0.72,-0.58,-1.59,-0.87,-2.62,-0.87c-1.19,0,-2.26,0.53,-3.2,1.61c-1.27,1.46,-2.13,3.76,-2.59,6.9c-0.45,3.14,-0.68,6.23,-0.68,9.28" fill="#000000" stroke="none" fill-opacity="1"/>
<path d="m478.29,1615.43c0,-4.09,0.61,-7.61,1.85,-10.57c1.23,-2.95,2.87,-5.15,4.92,-6.6c1.58,-1.14,3.22,-1.72,4.92,-1.72c2.75,0,5.22,1.4,7.41,4.2c2.73,3.47,4.1,8.18,4.1,14.13c0,4.16,-0.59,7.7,-1.79,10.61c-1.19,2.91,-2.73,5.02,-4.59,6.33c-1.86,1.31,-3.65,1.97,-5.38,1.97c-3.42,0,-6.27,-2.02,-8.54,-6.06c-1.92,-3.4,-2.88,-7.5,-2.88,-12.3m5.18,0.66c0,4.94,0.6,8.97,1.82,12.09c1,2.62,2.5,3.94,4.49,3.94c0.95,0,1.94,-0.42,2.96,-1.28c1.02,-0.85,1.79,-2.28,2.32,-4.3c0.81,-3.03,1.21,-7.31,1.21,-12.83c0,-4.09,-0.42,-7.5,-1.27,-10.24c-0.63,-2.02,-1.45,-3.46,-2.46,-4.31c-0.72,-0.58,-1.59,-0.87,-2.62,-0.87c-1.19,0,-2.26,0.53,-3.2,1.61c-1.27,1.46,-2.13,3.76,-2.59,6.9c-0.45,3.14,-0.68,6.23,-0.68,9.28m26.72,11.93c0.82,0,1.52,0.28,2.09,0.86c0.56,0.57,0.84,1.26,0.84,2.07c0,0.81,-0.28,1.5,-0.86,2.07c-0.57,0.57,-1.26,0.86,-2.07,0.86c-0.81,0,-1.5,-0.28,-2.07,-0.86c-0.57,-0.57,-0.86,-1.26,-0.86,-2.07c0,-0.82,0.28,-1.52,0.86,-2.09c0.57,-0.56,1.26,-0.84,2.07,-0.84m31.67,-1.77l-2.51,6.9l-21.17,0l0,-0.97c6.22,-5.68,10.61,-10.32,13.15,-13.92c2.54,-3.59,3.81,-6.88,3.81,-9.87c0,-2.27,-0.69,-4.14,-2.09,-5.61c-1.39,-1.46,-3.06,-2.19,-5,-2.19c-1.76,0,-3.34,0.51,-4.75,1.54c-1.4,1.03,-2.43,2.54,-3.1,4.53l-0.97,0c0.44,-3.26,1.57,-5.76,3.4,-7.51c1.82,-1.74,4.1,-2.62,6.84,-2.62c2.91,0,5.34,0.93,7.29,2.8c1.94,1.87,2.92,4.07,2.92,6.61c0,1.81,-0.42,3.63,-1.27,5.45c-1.3,2.85,-3.42,5.88,-6.35,9.07c-4.39,4.79,-7.13,7.69,-8.23,8.68l9.36,0c1.9,0,3.24,-0.07,4,-0.21c0.76,-0.14,1.46,-0.42,2.07,-0.86c0.61,-0.43,1.15,-1.04,1.61,-1.83l0.97,0" fill="#000000" stroke="none" fill-opacity="1"/>
<path d="m787.74,1615.43c0,-4.09,0.61,-7.61,1.85,-10.57c1.23,-2.95,2.87,-5.15,4.92,-6.6c1.58,-1.14,3.22,-1.72,4.92,-1.72c2.75,0,5.22,1.4,7.41,4.2c2.73,3.47,4.1,8.18,4.1,14.13c0,4.16,-0.59,7.7,-1.79,10.61c-1.19,2.91,-2.73,5.02,-4.59,6.33c-1.86,1.31,-3.65,1.97,-5.38,1.97c-3.42,0,-6.27,-2.02,-8.54,-6.06c-1.92,-3.4,-2.88,-7.5,-2.88,-12.3m5.18,0.66c0,4.94,0.6,8.97,1.82,12.09c1,2.62,2.5,3.94,4.49,3.94c0.95,0,1.94,-0.42,2.96,-1.28c1.02,-0.85,1.79,-2.28,2.32,-4.3c0.81,-3.03,1.21,-7.31,1.21,-12.83c0,-4.09,-0.42,-7.5,-1.27,-10.24c-0.63,-2.02,-1.45,-3.46,-2.46,-4.31c-0.72,-0.58,-1.59,-0.87,-2.62,-0.87c-1.19,0,-2.26,0.53,-3.2,1.61c-1.27,1.46,-2.13,3.76,-2.59,6.9c-0.45,3.14,-0.68,6.23,-0.68,9.28m26.72,11.93c0.82,0,1.52,0.28,2.09,0.86c0.56,0.57,0.84,1.26,0.84,2.07c0,0.81,-0.28,1.5,-0.86,2.07c-0.57,0.57,-1.26,0.86,-2.07,0.86c-0.81,0,-1.5,-0.28,-2.07,-0.86c-0.57,-0.57,-0.86,-1.26,-0.86,-2.07c0,-0.82,0.28,-1.52,0.86,-2.09c0.57,-0.56,1.26,-0.84,2.07,-0.84m32.04,-8.09l0,3.75l-4.81,0l0,9.47l-4.36,0l0,-9.47l-15.19,0l0,-3.38l16.64,-23.76l2.91,0l0,23.39l4.81,0m-9.18,0l0,-17.81l-12.59,17.81l12.59,0" fill="#000000" stroke="none" fill-opacity="1"/>
<path d="m1097.19,1615.43c0,-4.09,0.61,-7.61,1.85,-10.57c1.23,-2.95,2.87,-5.15,4.92,-6.6c1.58,-1.14,3.22,-1.72,4.92,-1.72c2.75,0,5.22,1.4,7.41,4.2c2.73,3.47,4.1,8.18,4.1,14.13c0,4.16,-0.59,7.7,-1.79,10.61c-1.19,2.91,-2.73,5.02,-4.59,6.33c-1.86,1.31,-3.65,1.97,-5.38,1.97c-3.42,0,-6.27,-2.02,-8.54,-6.06c-1.92,-3.4,-2.88,-7.5,-2.88,-12.3m5.18,0.66c0,4.94,0.6,8.97,1.82,12.09c1,2.62,2.5,3.94,4.49,3.94c0.95,0,1.94,-0.42,2.96,-1.28c1.02,-0.85,1.79,-2.28,2.32,-4.3c0.81,-3.03,1.21,-7.31,1.21,-12.83c0,-4.09,-0.42,-7.5,-1.27,-10.24c-0.63,-2.02,-1.45,-3.46,-2.46,-4.31c-0.72,-0.58,-1.59,-0.87,-2.62,-0.87c-1.19,0,-2.26,0.53,-3.2,1.61c-1.27,1.46,-2.13,3.76,-2.59,6.9c-0.45,3.14,-0.68,6.23,-0.68,9.28m26.72,11.93c0.82,0,1.52,0.28,2.09,0.86c0.56,0.57,0.84,1.26,0.84,2.07c0,0.81,-0.28,1.5,-0.86,2.07c-0.57,0.57,-1.26,0.86,-2.07,0.86c-0.81,0,-1.5,-0.28,-2.07,-0.86c-0.57,-0.57,-0.86,-1.26,-0.86,-2.07c0,-0.82,0.28,-1.52,0.86,-2.09c0.57,-0.56,1.26,-0.84,2.07,-0.84m31.11,-31.49l0,0.97c-2.32,0.22,-4.23,0.69,-5.7,1.38c-1.47,0.69,-2.92,1.75,-4.36,3.18c-1.43,1.42,-2.62,3.02,-3.57,4.77c-0.94,1.75,-1.73,3.84,-2.36,6.25c2.54,-1.74,5.09,-2.62,7.64,-2.62c2.45,0,4.57,0.98,6.37,2.96c1.79,1.97,2.69,4.51,2.69,7.62c0,2.99,-0.9,5.73,-2.72,8.2c-2.18,2.99,-5.08,4.49,-8.68,4.49c-2.45,0,-4.53,-0.81,-6.24,-2.43c-3.35,-3.15,-5.02,-7.25,-5.02,-12.27c0,-3.21,0.64,-6.26,1.93,-9.15c1.28,-2.89,3.12,-5.46,5.51,-7.7c2.39,-2.24,4.67,-3.74,6.86,-4.52c2.18,-0.77,4.22,-1.16,6.11,-1.16l1.53,0m-16.46,18.52c-0.31,2.38,-0.47,4.3,-0.47,5.76c0,1.69,0.31,3.53,0.93,5.51c0.62,1.98,1.55,3.55,2.79,4.72c0.89,0.82,1.99,1.24,3.28,1.24c1.53,0,2.9,-0.72,4.11,-2.17c1.2,-1.44,1.81,-3.51,1.81,-6.19c0,-3.01,-0.59,-5.62,-1.79,-7.83c-1.19,-2.2,-2.9,-3.3,-5.1,-3.3c-0.67,0,-1.38,0.14,-2.15,0.42c-0.76,0.28,-1.9,0.89,-3.4,1.82" fill="#000000" stroke="none" fill-opacity="1"/>
<path d="m1406.63,1615.43c0,-4.09,0.61,-7.61,1.85,-10.57c1.23,-2.95,2.87,-5.15,4.92,-6.6c1.58,-1.14,3.22,-1.72,4.92,-1.72c2.75,0,5.22,1.4,7.41,4.2c2.73,3.47,4.1,8.18,4.1,14.13c0,4.16,-0.59,7.7,-1.79,10.61c-1.19,2.91,-2.73,5.02,-4.59,6.33c-1.86,1.31,-3.65,1.97,-5.38,1.97c-3.42,0,-6.27,-2.02,-8.54,-6.06c-1.92,-3.4,-2.88,-7.5,-2.88,-12.3m5.18,0.66c0,4.94,0.6,8.97,1.82,12.09c1,2.62,2.5,3.94,4.49,3.94c0.95,0,1.94,-0.42,2.96,-1.28c1.02,-0.85,1.79,-2.28,2.32,-4.3c0.81,-3.03,1.21,-7.31,1.21,-12.83c0,-4.09,-0.42,-7.5,-1.27,-10.24c-0.63,-2.02,-1.45,-3.46,-2.46,-4.31c-0.72,-0.58,-1.59,-0.87,-2.62,-0.87c-1.19,0,-2.26,0.53,-3.2,1.61c-1.27,1.46,-2.13,3.76,-2.59,6.9c-0.45,3.14,-0.68,6.23,-0.68,9.28m26.72,11.93c0.82,0,1.52,0.28,2.09,0.86c0.56,0.57,0.84,1.26,0.84,2.07c0,0.81,-0.28,1.5,-0.86,2.07c-0.57,0.57,-1.26,0.86,-2.07,0.86c-0.81,0,-1.5,-0.28,-2.07,-0.86c-0.57,-0.57,-0.86,-1.26,-0.86,-2.07c0,-0.82,0.28,-1.52,0.86,-2.09c0.57,-0.56,1.26,-0.84,2.07,-0.84m17.22,-12.94c-2.84,-2.32,-4.67,-4.19,-5.49,-5.61c-0.82,-1.41,-1.23,-2.87,-1.23,-4.39c0,-2.32,0.89,-4.33,2.69,-6.02c1.79,-1.68,4.19,-2.52,7.17,-2.52c2.89,0,5.22,0.78,6.98,2.35c1.76,1.57,2.64,3.36,2.64,5.37c0,1.34,-0.47,2.7,-1.42,4.1c-0.95,1.39,-2.93,3.03,-5.95,4.92c3.1,2.39,5.16,4.28,6.16,5.66c1.34,1.79,2.01,3.69,2.01,5.68c0,2.52,-0.96,4.67,-2.88,6.47c-1.92,1.79,-4.44,2.68,-7.56,2.68c-3.4,0,-6.06,-1.06,-7.96,-3.2c-1.51,-1.71,-2.27,-3.58,-2.27,-5.61c0,-1.58,0.53,-3.16,1.6,-4.72c1.06,-1.56,2.9,-3.28,5.51,-5.17m4.15,-2.83c2.11,-1.9,3.45,-3.4,4.02,-4.51c0.56,-1.1,0.84,-2.35,0.84,-3.74c0,-1.85,-0.52,-3.3,-1.56,-4.35c-1.04,-1.04,-2.46,-1.57,-4.26,-1.57c-1.79,0,-3.26,0.52,-4.39,1.56c-1.12,1.04,-1.69,2.25,-1.69,3.65c0,0.91,0.23,1.83,0.7,2.75c0.46,0.91,1.13,1.79,1.99,2.62l4.34,3.59m-2.91,3.83c-1.46,1.23,-2.54,2.58,-3.25,4.03c-0.7,1.45,-1.05,3.03,-1.05,4.72c0,2.27,0.62,4.09,1.86,5.46c1.24,1.36,2.82,2.05,4.75,2.05c1.9,0,3.43,-0.53,4.57,-1.61c1.14,-1.07,1.72,-2.38,1.72,-3.91c0,-1.27,-0.33,-2.4,-1,-3.41c-1.25,-1.87,-3.78,-4.31,-7.59,-7.33" fill="#000000" stroke="none" fill-opacity="1"/>
<path d="m1740.83,1600.79l8.73,-4.26l0.87,0l0,30.3c0,2.01,0.08,3.26,0.25,3.75c0.16,0.49,0.51,0.87,1.04,1.13c0.52,0.26,1.6,0.41,3.22,0.44l0,0.97l-13.49,0l0,-0.97c1.69,-0.03,2.78,-0.18,3.28,-0.43c0.49,-0.25,0.83,-0.59,1.03,-1.03c0.19,-0.43,0.29,-1.72,0.29,-3.87l0,-19.37c0,-2.61,-0.08,-4.28,-0.26,-5.02c-0.12,-0.56,-0.34,-0.97,-0.67,-1.24c-0.32,-0.26,-0.71,-0.39,-1.17,-0.39c-0.65,0,-1.56,0.27,-2.72,0.82l-0.39,-0.82" fill="#000000" stroke="none" fill-opacity="1"/>
</g>
<g fill="none" stroke-linecap="butt" stroke-width="2.08">
<path d="M1748.03,1570.86l0,-1547.24"/>
<path d="M1748.03,1570.86l-12.5,0M1748.03,1493.5l-12.5,0M1748.03,1416.14l-12.5,0M1748.03,1338.77l-12.5,0M1748.03,1261.41l-12.5,0M1748.03,1184.05l-12.5,0M1748.03,1106.69l-12.5,0M1748.03,1029.33l-12.5,0M1748.03,951.96l-12.5,0M1748.03,874.6l-12.5,0M1748.03,797.24l-12.5,0M1748.03,719.88l-12.5,0M1748.03,642.51l-12.5,0M1748.03,565.15l-12.5,0M1748.03,487.79l-12.5,0M1748.03,410.43l-12.5,0M1748.03,333.07l-12.5,0M1748.03,255.7l-12.5,0M1748.03,178.34l-12.5,0M1748.03,100.98l-12.5,0M1748.03,23.62l-12.5,0"/>
<path d="M1748.03,1570.86l-25,0M1748.03,1261.41l-25,0M1748.03,951.96l-25,0M1748.03,642.51l-25,0M1748.03,333.07l-25,0M1748.03,23.62l-25,0"/>
<path d="M200.78,23.62l1547.24,0"/>
<path d="M200.78,23.62l0,12.5M278.14,23.62l0,12.5M355.51,23.62l0,12.5M432.87,23.62l0,12.5M510.23,23.62l0,12.5M587.59,23.62l0,12.5M664.96,23.62l0,12.5M742.32,23.62l0,12.5M819.68,23.62l0,12.5M897.04,23.62l0,12.5M974.4,23.62l0,12.5M1051.77,23.62l0,12.5M1129.13,23.62l0,12.5M1206.49,23.62l0,12.5M1283.85,23.62l0,12.5M1361.22,23.62l0,12.5M1438.58,23.62l0,12.5M1515.94,23.62l0,12.5M1593.3,23.62l0,12.5M1670.66,23.62l0,12.5M1748.03,23.62l0,12.5"/>
<path d="M200.78,23.62l0,25M510.23,23.62l0,25M819.68,23.62l0,25M1129.13,23.62l0,25M1438.58,23.62l0,25M1748.03,23.62l0,25"/>
</g>
</g>
</g>
</svg>
